<svg width="20" height="20" viewBox="0 0 20 20" fill="none" xmlns="http://www.w3.org/2000/svg">
<path d="M15.4254 0.87933L9.97056 6.33415L4.51574 0.87933C3.84639 0.209978 2.76073 0.209978 2.09137 0.87933L0.87919 2.09151C0.209837 2.76087 0.209837 3.84653 0.87919 4.51588L6.33401 9.9707L0.87919 15.4255C0.209837 16.0949 0.209837 17.1805 0.87919 17.8499L2.09137 19.0621C2.76073 19.7314 3.84639 19.7314 4.51574 19.0621L9.97056 13.6073L15.4254 19.0621C16.0947 19.7314 17.1804 19.7314 17.8498 19.0621L19.0619 17.8499C19.7313 17.1805 19.7313 16.0949 19.0619 15.4255L13.6071 9.9707L19.0619 4.51588C19.7313 3.84653 19.7313 2.76087 19.0619 2.09151L17.8498 0.87933C17.1804 0.209978 16.0947 0.209978 15.4254 0.87933Z" fill="white"/>
</svg>
