<svg width="26" height="23" viewBox="0 0 26 23" fill="none" xmlns="http://www.w3.org/2000/svg">
<path d="M0.924286 4.15929H24.9557C25.4662 4.15929 25.88 3.74549 25.88 3.235V0.924286C25.88 0.413791 25.4662 0 24.9557 0H0.924286C0.413791 0 0 0.413791 0 0.924286V3.235C0 3.74549 0.413791 4.15929 0.924286 4.15929ZM0.924286 13.4021H24.9557C25.4662 13.4021 25.88 12.9884 25.88 12.4779V10.1671C25.88 9.65665 25.4662 9.24286 24.9557 9.24286H0.924286C0.413791 9.24286 0 9.65665 0 10.1671V12.4779C0 12.9884 0.413791 13.4021 0.924286 13.4021ZM0.924286 22.645H24.9557C25.4662 22.645 25.88 22.2312 25.88 21.7207V19.41C25.88 18.8995 25.4662 18.4857 24.9557 18.4857H0.924286C0.413791 18.4857 0 18.8995 0 19.41V21.7207C0 22.2312 0.413791 22.645 0.924286 22.645Z" fill="white"/>
</svg>
